<svg width="20" height="21" viewBox="0 0 20 21" fill="none" xmlns="http://www.w3.org/2000/svg">
<path d="M10.1179 5.99159C9.9229 6.09678 9.80133 6.29682 9.80133 6.51439V9.90226H3.11191C2.77414 9.90226 2.5 10.17 2.5 10.5C2.5 10.8299 2.77414 11.0977 3.11191 11.0977H9.80133V14.4856C9.80133 14.7039 9.9229 14.904 10.1179 15.0084C10.3129 15.1144 10.5511 15.1072 10.7396 14.9916L17.2144 11.0061C17.3923 10.8961 17.5 10.7056 17.5 10.5C17.5 10.2944 17.3923 10.1039 17.2144 9.99391L10.7396 6.00832C10.6401 5.94775 10.5267 5.91667 10.4132 5.91667C10.3121 5.91667 10.2101 5.94217 10.1179 5.99159Z" fill="#CF7D4E"/>
</svg>
