<svg width="20" height="21" viewBox="0 0 20 21" fill="none" xmlns="http://www.w3.org/2000/svg">
<path d="M17.8628 2.65173C17.4459 2.22391 16.829 2.06453 16.2538 2.2323L2.83996 6.13302C2.23304 6.30163 1.80287 6.78565 1.68698 7.40054C1.5686 8.02633 1.98211 8.82074 2.52233 9.15293L6.71654 11.7308C7.14672 11.995 7.70195 11.9287 8.05793 11.5697L12.8607 6.737C13.1025 6.48534 13.5027 6.48534 13.7444 6.737C13.9862 6.98027 13.9862 7.37454 13.7444 7.6262L8.93328 12.4597C8.57647 12.8179 8.50978 13.3758 8.77239 13.8086L11.3351 18.0449C11.6352 18.5482 12.1521 18.8334 12.719 18.8334C12.7857 18.8334 12.8607 18.8334 12.9274 18.825C13.5777 18.7411 14.0946 18.2965 14.2863 17.6674L18.2629 4.27074C18.438 3.70031 18.2796 3.07955 17.8628 2.65173Z" fill="white"/>
</svg>
