<svg width="43" height="44" viewBox="0 0 43 44" fill="none" xmlns="http://www.w3.org/2000/svg">
<path d="M42.3549 22.1361C42.3471 28.2851 39.7215 33.818 35.5297 37.6811C35.5273 37.6787 35.5224 37.6786 35.5176 37.6762C26.6659 34.9807 28.3302 30.1565 28.3302 30.1565C28.3302 30.1565 31.6104 26.0735 31.4341 23.2431C31.3268 21.5605 31.0458 20.7772 30.8322 20.4219C30.7255 20.2419 30.4848 20.193 30.3145 20.3167C29.1415 21.1857 24.449 24.9144 25.9451 28.1598C25.9451 28.1598 27.9438 31.9115 27.6602 33.1195C27.6602 33.1195 21.6404 29.0564 23.8347 22.3728C23.8347 22.3728 27.9078 19.9952 27.5502 16.3525C27.1901 12.7098 25.6208 11.5748 25.6208 11.5748C25.6208 11.5748 22.0432 14.3007 22.1069 17.7582C22.1114 18.016 22.1573 18.2713 22.2397 18.5146C22.4722 19.203 22.9928 20.9421 22.6779 21.9215C22.2873 23.1343 22.7963 26.2909 22.8181 26.4344C22.7283 26.2543 19.7865 20.318 19.9989 19.6326C20.2138 18.9375 20.9984 15.6464 19.7592 13.1283C18.8716 11.3231 17.3193 10.2659 16.5126 9.81266C16.2308 9.65426 15.8756 9.77538 15.7537 10.0743C15.1781 11.4522 13.9041 15.2338 15.9798 17.7165C18.5581 20.7979 21.0122 22.0434 22.4457 28.6489C22.4457 28.6489 20.884 27.2805 19.8428 25.8155C18.8283 24.3869 14.7564 19.9639 9.9521 23.7217C9.80121 23.8406 9.85439 24.079 10.0416 24.1205C10.9361 24.3283 12.9897 25.0458 15.2162 27.4532C15.7552 28.035 16.5548 28.2938 17.3307 28.1294C18.4981 27.8804 20.1105 27.564 20.6064 27.6011C21.416 27.6629 28.3669 35.7536 28.3669 35.7536L27.2752 35.6817C27.0054 35.6644 26.76 35.5255 26.6022 35.3089C26.3134 34.9049 25.7429 34.2356 24.9143 33.7969C24.1344 33.385 23.208 33.3498 22.3785 33.6599C20.9677 34.1906 18.1774 35.3444 17.5195 36.4402C17.4294 36.5908 17.5167 36.783 17.6868 36.8124C18.3772 36.9275 20.2539 37.1973 23.1472 37.2618C23.1836 37.2643 23.2201 37.2619 23.2542 37.2595C23.6773 37.2284 26.3642 37.0008 27.0847 36.3866C27.2356 36.2579 27.4302 36.1901 27.6296 36.1782C28.5949 36.1138 31.1867 36.2192 34.505 38.5551C30.8566 41.5143 26.2055 43.2882 21.1409 43.2818C9.45323 43.2719 -0.0147656 33.7775 4.19105e-05 22.0825C0.0148494 10.3875 9.50685 0.917032 21.2043 0.931843C32.9017 0.946653 42.3697 10.4411 42.3549 22.1361Z" fill="#24BEE0"/>
</svg>
